<?xml version="1.0" encoding="utf-8"?>
<!-- Generator: Adobe Illustrator 15.0.0, SVG Export Plug-In . SVG Version: 6.00 Build 0)  -->
<!DOCTYPE svg PUBLIC "-//W3C//DTD SVG 1.1//EN" "http://www.w3.org/Graphics/SVG/1.1/DTD/svg11.dtd">
<svg version="1.1" id="Layer_1" xmlns="http://www.w3.org/2000/svg" xmlns:xlink="http://www.w3.org/1999/xlink" x="0px" y="0px"
	 width="125px" height="125px" viewBox="0 0 125 125" enable-background="new 0 0 125 125" xml:space="preserve">
<g>
	<g>
		<path fill="#C2000B" d="M99.182,42.886c0.093,1.091,0.151,2.191,0.151,3.306c0,1.528-0.1,3.033-0.273,4.516
			c8.34,4.978,13.94,14.089,13.94,24.487c0,15.716-12.785,28.502-28.5,28.502c-6,0-11.568-1.868-16.166-5.047
			c-1.439,1.867-3.041,3.602-4.793,5.176c5.879,4.315,13.124,6.871,20.959,6.871c19.575,0,35.5-15.926,35.5-35.502
			C120,60.854,111.448,48.482,99.182,42.886z"/>
		<path fill="#C2000B" d="M65.962,53.574c0.379-0.325,0.767-0.642,1.162-0.947c0.396-0.305,0.799-0.601,1.21-0.886
			c4.598-3.179,10.166-5.046,16.166-5.046c0.611,0,1.217,0.026,1.818,0.064c0.004-0.189,0.015-0.377,0.015-0.567
			c0-2.235-0.292-4.404-0.834-6.471c-0.333-0.009-0.664-0.025-0.999-0.025c-7.835,0-15.08,2.556-20.959,6.871
			c-0.411,0.302-0.814,0.614-1.212,0.933c-0.395,0.317-0.782,0.643-1.163,0.976c-1.76,1.539-3.367,3.246-4.795,5.1
			c-0.306,0.397-0.602,0.801-0.891,1.211c-0.29,0.411-0.571,0.829-0.844,1.252c-2.502,3.887-4.265,8.29-5.093,13.012
			c-0.09,0.515-0.168,1.033-0.236,1.555c-0.067,0.52-0.125,1.042-0.169,1.569C49.053,73.17,49,74.176,49,75.194
			c0,1.549,0.11,3.07,0.304,4.567c0.072,0.562,0.158,1.118,0.256,1.671c0.1,0.562,0.213,1.118,0.339,1.671
			c0.927,4.058,2.549,7.85,4.737,11.249c1.854-1.629,3.471-3.521,4.791-5.619c-0.723-1.334-1.337-2.734-1.843-4.187
			c-0.177-0.507-0.338-1.021-0.487-1.541c-0.147-0.515-0.28-1.034-0.398-1.561C56.247,79.433,56,77.342,56,75.194
			c0-0.307,0.014-0.61,0.023-0.914c0.016-0.506,0.044-1.009,0.087-1.508c0.042-0.502,0.097-1,0.165-1.494
			c0.475-3.439,1.56-6.687,3.151-9.622c0.268-0.494,0.554-0.978,0.849-1.453c0.284-0.457,0.582-0.904,0.891-1.343
			C62.54,56.903,64.152,55.128,65.962,53.574z"/>
	</g>
	<g>
		<path fill="#80C41C" d="M32.625,50.231c-2.368,0.493-4.613,1.319-6.692,2.42c2.129,11.528,9.84,21.116,20.219,25.851
			C46.058,77.411,46,76.31,46,75.194c0-1.527,0.1-3.031,0.273-4.513C39.033,66.36,33.863,58.922,32.625,50.231z"/>
		<path fill="#80C41C" d="M96.029,41.627c-0.072-0.561-0.157-1.118-0.256-1.67c-0.1-0.562-0.213-1.119-0.339-1.671
			C91.83,22.506,77.69,10.692,60.833,10.692c-16.934,0-31.127,11.921-34.651,27.81c2.475-0.788,5.055-1.336,7.717-1.607
			c3.864-11.162,14.475-19.202,26.935-19.202c12.44,0,23.038,8.015,26.917,19.149c0.177,0.507,0.338,1.021,0.486,1.542
			c0.147,0.514,0.28,1.034,0.398,1.56c0.452,2.012,0.698,4.102,0.698,6.248c0,0.308-0.014,0.612-0.023,0.917
			c-0.016,0.506-0.045,1.009-0.087,1.508c-0.043,0.502-0.098,1-0.166,1.494c-1.173,8.492-6.099,15.796-13.046,20.188
			c-0.46,0.29-0.928,0.571-1.405,0.836c-0.47,0.261-0.946,0.513-1.433,0.747c-2.152,1.038-4.456,1.809-6.866,2.279
			c-0.493,0.097-0.991,0.179-1.493,0.249c-0.495,0.069-0.994,0.126-1.496,0.169c-0.819,0.071-1.646,0.115-2.484,0.115
			c-0.611,0-1.217-0.026-1.819-0.064C59.01,74.818,59,75.005,59,75.194c0,2.236,0.292,4.406,0.835,6.475
			c0.333,0.01,0.664,0.025,0.998,0.025c0.56,0,1.116-0.017,1.67-0.042c0.526-0.024,1.049-0.065,1.569-0.112
			c0.531-0.048,1.058-0.11,1.582-0.182c2.564-0.35,5.045-0.966,7.405-1.835c0.535-0.197,1.065-0.406,1.588-0.628
			c0.525-0.223,1.045-0.458,1.558-0.705c10.126-4.885,17.583-14.441,19.584-25.852c0.091-0.514,0.169-1.032,0.237-1.554
			c0.067-0.52,0.124-1.042,0.169-1.569c0.085-0.998,0.138-2.004,0.138-3.024C96.333,44.644,96.223,43.123,96.029,41.627z"/>
	</g>
	<g>
		<path fill="#FEA621" d="M66.214,72.654c0.044,0.499,0.075,1.001,0.093,1.507c2.41-0.471,4.714-1.241,6.866-2.279
			c-0.049-0.534-0.113-1.063-0.187-1.59c-0.072-0.522-0.157-1.04-0.253-1.555c-0.85-4.604-2.59-8.898-5.036-12.699
			c-1.854,1.628-3.471,3.521-4.791,5.618c1.573,2.901,2.652,6.106,3.136,9.501C66.112,71.652,66.169,72.151,66.214,72.654z"/>
		<path fill="#FEA621" d="M65.26,82.92c-0.149,0.531-0.313,1.057-0.493,1.575c-0.509,1.47-1.128,2.889-1.86,4.238
			c-0.268,0.495-0.554,0.978-0.85,1.453c-0.283,0.457-0.582,0.904-0.89,1.344c-1.374,1.956-2.986,3.731-4.795,5.286
			c-0.379,0.325-0.766,0.642-1.162,0.946c-0.396,0.306-0.798,0.602-1.21,0.887c-4.597,3.179-10.166,5.047-16.166,5.047
			c-15.715,0-28.5-12.786-28.5-28.502c0-10.139,5.326-19.051,13.322-24.104c0.46-0.291,0.928-0.571,1.405-0.836
			c0.471-0.261,0.946-0.513,1.433-0.747c2.152-1.038,4.456-1.809,6.866-2.279c0.493-0.097,0.992-0.179,1.494-0.25
			c0.495-0.069,0.993-0.125,1.496-0.169c0.82-0.071,1.647-0.115,2.485-0.115c6,0,11.569,1.868,16.166,5.046
			c1.439-1.867,3.042-3.602,4.793-5.176c-5.878-4.314-13.124-6.871-20.958-6.871c-0.561,0-1.117,0.017-1.671,0.042
			c-0.527,0.024-1.049,0.064-1.57,0.112c-0.531,0.048-1.058,0.11-1.582,0.182c-2.564,0.35-5.044,0.966-7.405,1.834
			c-0.535,0.197-1.065,0.406-1.587,0.628c-0.526,0.223-1.045,0.458-1.558,0.705C10.562,48.938,2.333,61.123,2.333,75.194
			c0,19.576,15.925,35.502,35.5,35.502c7.834,0,15.08-2.556,20.958-6.871c0.411-0.302,0.814-0.614,1.212-0.934
			c0.395-0.316,0.782-0.643,1.163-0.976c1.76-1.538,3.367-3.246,4.795-5.101c0.306-0.396,0.603-0.801,0.892-1.211
			c0.29-0.411,0.57-0.828,0.844-1.252c2.227-3.459,3.868-7.326,4.787-11.465c0.124-0.561,0.234-1.126,0.332-1.696
			c0.094-0.552,0.175-1.107,0.243-1.668c-2.36,0.869-4.841,1.485-7.405,1.835C65.538,81.885,65.405,82.405,65.26,82.92z"/>
	</g>
</g>
</svg>
