<svg xmlns="http://www.w3.org/2000/svg" viewBox="0 0 146 22.81"><defs><style>.cls-1{fill:#fff;}.cls-2{fill:#f7a600;}</style></defs><title>Asset 3</title><g id="Layer_2" data-name="Layer 2"><g id="Layer_1-2" data-name="Layer 1"><path id="_Compound_Path_" data-name="&lt;Compound Path&gt;" class="cls-1" d="M34,22.23H27.38L26,19.71l2.54-1.17V5L26,3.86l1.57-2.51H34l1.57,2.51L33,5V18.54l2.54,1.17Z"/><path id="_Compound_Path_2" data-name="&lt;Compound Path&gt;" class="cls-1" d="M52.1,14.21A8.58,8.58,0,0,1,50,20.31a7.46,7.46,0,0,1-5.73,2.2,8,8,0,0,1-4.06-1,6.7,6.7,0,0,1-2.7-2.89,9.72,9.72,0,0,1-.94-4.4,8.54,8.54,0,0,1,2-6.09A7.5,7.5,0,0,1,44.4,6a8.06,8.06,0,0,1,4.06,1,6.68,6.68,0,0,1,2.7,2.87A9.63,9.63,0,0,1,52.1,14.21Zm-11,0a6.7,6.7,0,0,0,.78,3.59A2.78,2.78,0,0,0,44.37,19a2.74,2.74,0,0,0,2.51-1.21,6.8,6.8,0,0,0,.76-3.59,6.6,6.6,0,0,0-.77-3.56,2.79,2.79,0,0,0-2.53-1.19,2.78,2.78,0,0,0-2.51,1.18A6.59,6.59,0,0,0,41.06,14.21Z"/><path id="_Compound_Path_3" data-name="&lt;Compound Path&gt;" class="cls-1" d="M55,16.17V12.6h7.67v3.57Z"/><path id="_Compound_Path_4" data-name="&lt;Compound Path&gt;" class="cls-1" d="M70.69,22.23H66.26V5H60.59V1.34H76.36V5H70.69Z"/><path id="_Compound_Path_5" data-name="&lt;Compound Path&gt;" class="cls-1" d="M86.27,22.23l-.84-2.17h-.11A6.44,6.44,0,0,1,83.05,22a7.32,7.32,0,0,1-3,.54A4.91,4.91,0,0,1,76.4,21.2a5,5,0,0,1-1.32-3.74,4.21,4.21,0,0,1,1.78-3.75,10.31,10.31,0,0,1,5.36-1.34L85,12.29v-.7A2.17,2.17,0,0,0,82.5,9.16,11.33,11.33,0,0,0,78,10.31L76.56,7.37a13,13,0,0,1,6.11-1.44,7.62,7.62,0,0,1,4.93,1.4,5.17,5.17,0,0,1,1.71,4.26V22.23ZM85,14.83l-1.69.06a5.4,5.4,0,0,0-2.83.69,2.15,2.15,0,0,0-.93,1.91q0,1.84,2.11,1.84a3.35,3.35,0,0,0,2.42-.87A3.06,3.06,0,0,0,85,16.14Z"/><path id="_Compound_Path_6" data-name="&lt;Compound Path&gt;" class="cls-1" d="M106.85,22.23h-4.36V12.9q0-3.46-2.57-3.46a2.92,2.92,0,0,0-2.64,1.24,7.59,7.59,0,0,0-.81,4v7.51H92.1V0h4.36V4.53q0,.53-.1,2.49l-.1,1.29h.23A5,5,0,0,1,101.12,6a5.66,5.66,0,0,1,4.27,1.51,6,6,0,0,1,1.46,4.34Z"/><path id="_Compound_Path_7" data-name="&lt;Compound Path&gt;" class="cls-1" d="M124.8,14.21a8.58,8.58,0,0,1-2.06,6.1,7.46,7.46,0,0,1-5.73,2.2,8,8,0,0,1-4.06-1,6.7,6.7,0,0,1-2.7-2.89,9.72,9.72,0,0,1-.94-4.4,8.54,8.54,0,0,1,2-6.09A7.5,7.5,0,0,1,117.1,6a8.06,8.06,0,0,1,4.06,1,6.68,6.68,0,0,1,2.7,2.87A9.63,9.63,0,0,1,124.8,14.21Zm-11,0a6.7,6.7,0,0,0,.78,3.59A2.78,2.78,0,0,0,117.07,19a2.74,2.74,0,0,0,2.51-1.21,6.8,6.8,0,0,0,.76-3.59,6.6,6.6,0,0,0-.77-3.56,3.28,3.28,0,0,0-5,0A6.59,6.59,0,0,0,113.75,14.21Z"/><path id="_Compound_Path_8" data-name="&lt;Compound Path&gt;" class="cls-1" d="M135.29,22.51a8.24,8.24,0,0,1-6-2.13,8.06,8.06,0,0,1-2.17-6,8.86,8.86,0,0,1,2-6.21A7.15,7.15,0,0,1,134.65,6a7,7,0,0,1,5.27,1.93,7.3,7.3,0,0,1,1.89,5.33v2.11H131.5a4.19,4.19,0,0,0,1.1,2.9,3.87,3.87,0,0,0,2.89,1,12,12,0,0,0,2.73-.3,13.65,13.65,0,0,0,2.69-1v3.37a10.23,10.23,0,0,1-2.44.85A15.4,15.4,0,0,1,135.29,22.51Zm-.61-13.46a2.76,2.76,0,0,0-2.17.88,4.07,4.07,0,0,0-.9,2.49h6.11a3.63,3.63,0,0,0-.84-2.49A2.85,2.85,0,0,0,134.68,9.06Z"/><path class="cls-2" d="M12.82.81,0,22.81l12.82-7.29,12.82,7.29Zm0,13.64h0L9.46,12.53l3.36-3.85,3.36,3.84-3.35,1.93Zm.23-6.21V3.05L18,11.49l-1.38.8Zm-.46,0L9.05,12.29l-1.38-.8,4.92-8.44ZM8.74,12.65l-5.23,6L7.44,11.9Zm.41.24,3.19,1.84L2.81,20.14Zm7.34,0,6.34,7.26L13.3,14.72Zm.41-.24,1.31-.75,3.94,6.76Z"/><path class="cls-1" d="M144.8,8.41a.6.6,0,0,0-.08-.77,1,1,0,0,0-.61-.16h-.59l0,2h.43l0-.77h.23l.46.79h.48l-.57-.89A.65.65,0,0,0,144.8,8.41Zm-.43-.1a.53.53,0,0,1-.3.06h-.14V7.82h.13a.6.6,0,0,1,.3.07.22.22,0,0,1,.09.21A.24.24,0,0,1,144.37,8.31Z"/><path class="cls-1" d="M144.14,6.67A1.86,1.86,0,1,0,146,8.54,1.86,1.86,0,0,0,144.14,6.67Zm1.05,2.91a1.49,1.49,0,1,1,.44-1.05A1.48,1.48,0,0,1,145.19,9.59Z"/></g></g></svg>